<mxfile host="app.diagrams.net" modified="2022-08-07T23:48:46.749Z" agent="5.0 (Windows)" etag="r9kBUOKIdJ_AOcLacCQW" version="20.2.3" type="github">
  <diagram id="U7xVcdPm4k6wgLOJ2mHv" name="Página-1">
    <mxGraphModel dx="1210" dy="606" grid="1" gridSize="10" guides="1" tooltips="1" connect="1" arrows="1" fold="1" page="1" pageScale="1" pageWidth="827" pageHeight="1169" math="0" shadow="0">
      <root>
        <mxCell id="0" />
        <mxCell id="1" parent="0" />
        <mxCell id="-OToOTteW8yTn8H27Vme-6" value="Admistrador" style="swimlane;fontStyle=1;align=center;verticalAlign=top;childLayout=stackLayout;horizontal=1;startSize=26;horizontalStack=0;resizeParent=1;resizeParentMax=0;resizeLast=0;collapsible=1;marginBottom=0;" parent="1" vertex="1">
          <mxGeometry x="540" y="200" width="245.5" height="148" as="geometry" />
        </mxCell>
        <mxCell id="-OToOTteW8yTn8H27Vme-7" value="Nome : String&#xa;Email : String &#xa;Foto : imagem&#xa;CPF : String&#xa;&#xa;" style="text;strokeColor=none;fillColor=none;align=left;verticalAlign=top;spacingLeft=4;spacingRight=4;overflow=hidden;rotatable=0;points=[[0,0.5],[1,0.5]];portConstraint=eastwest;" parent="-OToOTteW8yTn8H27Vme-6" vertex="1">
          <mxGeometry y="26" width="245.5" height="64" as="geometry" />
        </mxCell>
        <mxCell id="-OToOTteW8yTn8H27Vme-8" value="" style="line;strokeWidth=1;fillColor=none;align=left;verticalAlign=middle;spacingTop=-1;spacingLeft=3;spacingRight=3;rotatable=0;labelPosition=right;points=[];portConstraint=eastwest;" parent="-OToOTteW8yTn8H27Vme-6" vertex="1">
          <mxGeometry y="90" width="245.5" height="8" as="geometry" />
        </mxCell>
        <mxCell id="-OToOTteW8yTn8H27Vme-9" value="Criar usuários&#xa;Pode modificar as funções do usuários&#xa;Registra os usuários com acesso facial&#xa;&#xa;&#xa;&#xa;" style="text;strokeColor=none;fillColor=none;align=left;verticalAlign=top;spacingLeft=4;spacingRight=4;overflow=hidden;rotatable=0;points=[[0,0.5],[1,0.5]];portConstraint=eastwest;" parent="-OToOTteW8yTn8H27Vme-6" vertex="1">
          <mxGeometry y="98" width="245.5" height="50" as="geometry" />
        </mxCell>
        <mxCell id="-OToOTteW8yTn8H27Vme-14" value="Usuário " style="swimlane;fontStyle=1;align=center;verticalAlign=top;childLayout=stackLayout;horizontal=1;startSize=26;horizontalStack=0;resizeParent=1;resizeParentMax=0;resizeLast=0;collapsible=1;marginBottom=0;" parent="1" vertex="1">
          <mxGeometry x="440" y="460" width="367.75" height="260" as="geometry" />
        </mxCell>
        <mxCell id="-OToOTteW8yTn8H27Vme-15" value="Reconhecimento facial de acesso&#xa;&#xa;" style="text;strokeColor=none;fillColor=none;align=left;verticalAlign=top;spacingLeft=4;spacingRight=4;overflow=hidden;rotatable=0;points=[[0,0.5],[1,0.5]];portConstraint=eastwest;" parent="-OToOTteW8yTn8H27Vme-14" vertex="1">
          <mxGeometry y="26" width="367.75" height="44" as="geometry" />
        </mxCell>
        <mxCell id="-OToOTteW8yTn8H27Vme-16" value="" style="line;strokeWidth=1;fillColor=none;align=left;verticalAlign=middle;spacingTop=-1;spacingLeft=3;spacingRight=3;rotatable=0;labelPosition=right;points=[];portConstraint=eastwest;" parent="-OToOTteW8yTn8H27Vme-14" vertex="1">
          <mxGeometry y="70" width="367.75" height="60" as="geometry" />
        </mxCell>
        <mxCell id="-OToOTteW8yTn8H27Vme-18" value="&lt;p&gt;&lt;span&gt;&lt;span&gt;Comando de voz para ligar/desligar luzes&lt;/span&gt;&lt;/span&gt;&lt;/p&gt;&lt;p&gt;&lt;span&gt;&lt;span&gt;Comando de voz para controlar portas&lt;/span&gt;&lt;/span&gt;&lt;/p&gt;&lt;p&gt;&lt;span&gt;&lt;span&gt;Envio de informação para o &lt;/span&gt;&lt;span&gt;WhatsApp&lt;/span&gt;&lt;/span&gt;&lt;/p&gt;&lt;p&gt;Comando de voz para portas para usuário específico&lt;span&gt;&lt;span&gt;&lt;/span&gt;&lt;/span&gt;&lt;/p&gt;" style="text;html=1;align=center;verticalAlign=middle;resizable=0;points=[];autosize=1;strokeColor=none;fillColor=none;" parent="-OToOTteW8yTn8H27Vme-14" vertex="1">
          <mxGeometry y="130" width="367.75" height="130" as="geometry" />
        </mxCell>
        <mxCell id="-OToOTteW8yTn8H27Vme-26" style="edgeStyle=orthogonalEdgeStyle;rounded=0;orthogonalLoop=1;jettySize=auto;html=1;entryX=0;entryY=0.5;entryDx=0;entryDy=0;" parent="1" source="-OToOTteW8yTn8H27Vme-20" target="-OToOTteW8yTn8H27Vme-7" edge="1">
          <mxGeometry relative="1" as="geometry" />
        </mxCell>
        <mxCell id="-OToOTteW8yTn8H27Vme-20" value="Chefe " style="swimlane;fontStyle=1;align=center;verticalAlign=top;childLayout=stackLayout;horizontal=1;startSize=26;horizontalStack=0;resizeParent=1;resizeParentMax=0;resizeLast=0;collapsible=1;marginBottom=0;" parent="1" vertex="1">
          <mxGeometry x="40" y="156" width="367.75" height="280" as="geometry" />
        </mxCell>
        <mxCell id="-OToOTteW8yTn8H27Vme-24" value="Nome : String&#xa;Email : String &#xa;Foto : imagem&#xa;CPF : String&#xa;CNPJ : String&#xa;&#xa;&#xa;" style="text;strokeColor=none;fillColor=none;align=left;verticalAlign=top;spacingLeft=4;spacingRight=4;overflow=hidden;rotatable=0;points=[[0,0.5],[1,0.5]];portConstraint=eastwest;" parent="-OToOTteW8yTn8H27Vme-20" vertex="1">
          <mxGeometry y="26" width="367.75" height="84" as="geometry" />
        </mxCell>
        <mxCell id="-OToOTteW8yTn8H27Vme-22" value="" style="line;strokeWidth=1;fillColor=none;align=left;verticalAlign=middle;spacingTop=-1;spacingLeft=3;spacingRight=3;rotatable=0;labelPosition=right;points=[];portConstraint=eastwest;" parent="-OToOTteW8yTn8H27Vme-20" vertex="1">
          <mxGeometry y="110" width="367.75" height="60" as="geometry" />
        </mxCell>
        <mxCell id="-OToOTteW8yTn8H27Vme-25" value="&lt;div&gt;Criar usuário e administrador&lt;/div&gt;&lt;div&gt;Pode modificar as funções do usuários e ADM&lt;br&gt;&lt;/div&gt;&lt;div&gt;&lt;p&gt;&lt;span&gt;&lt;span&gt;&lt;span data-contrast=&quot;auto&quot;&gt;&lt;span&gt;Sistema de controle do ar-condicionado (consumo)&lt;/span&gt;&lt;/span&gt;&lt;/span&gt;&lt;/span&gt;&lt;/p&gt;&lt;p&gt;&lt;span&gt;&lt;span&gt;Envio de informação para o &lt;/span&gt;&lt;span&gt;WhatsApp&lt;/span&gt;&lt;/span&gt;&lt;/p&gt;&lt;/div&gt;" style="text;html=1;align=center;verticalAlign=middle;resizable=0;points=[];autosize=1;strokeColor=none;fillColor=none;" parent="-OToOTteW8yTn8H27Vme-20" vertex="1">
          <mxGeometry y="170" width="367.75" height="110" as="geometry" />
        </mxCell>
        <mxCell id="-OToOTteW8yTn8H27Vme-27" style="edgeStyle=orthogonalEdgeStyle;rounded=0;orthogonalLoop=1;jettySize=auto;html=1;entryX=0.022;entryY=0.517;entryDx=0;entryDy=0;entryPerimeter=0;" parent="1" source="-OToOTteW8yTn8H27Vme-25" target="-OToOTteW8yTn8H27Vme-16" edge="1">
          <mxGeometry relative="1" as="geometry" />
        </mxCell>
        <mxCell id="-OToOTteW8yTn8H27Vme-29" style="edgeStyle=orthogonalEdgeStyle;rounded=0;orthogonalLoop=1;jettySize=auto;html=1;entryX=0.544;entryY=0;entryDx=0;entryDy=0;entryPerimeter=0;" parent="1" target="-OToOTteW8yTn8H27Vme-14" edge="1">
          <mxGeometry relative="1" as="geometry">
            <mxPoint x="630" y="350" as="sourcePoint" />
            <mxPoint x="714.1905" y="515.02" as="targetPoint" />
            <Array as="points">
              <mxPoint x="640" y="350" />
            </Array>
          </mxGeometry>
        </mxCell>
        <mxCell id="-OToOTteW8yTn8H27Vme-30" value="&lt;div&gt;RU : &lt;span class=&quot;user-name&quot;&gt; 3788362&lt;/span&gt;&lt;/div&gt;&lt;div&gt;&lt;span class=&quot;user-name&quot;&gt;Luan Leonardo Marques&lt;br&gt;&lt;/span&gt;&lt;/div&gt;" style="text;html=1;align=center;verticalAlign=middle;resizable=0;points=[];autosize=1;strokeColor=none;fillColor=none;" parent="1" vertex="1">
          <mxGeometry x="40" y="70" width="170" height="40" as="geometry" />
        </mxCell>
      </root>
    </mxGraphModel>
  </diagram>
</mxfile>
